<?xml version="1.0" encoding="UTF-8" standalone="no"?>
<!DOCTYPE svg PUBLIC "-//W3C//DTD SVG 1.1//EN"
 "http://www.w3.org/Graphics/SVG/1.1/DTD/svg11.dtd">
<!-- Generated by graphviz version 2.40.1 (20161225.0304)
 -->
<!-- Title: %3 Pages: 1 -->
<svg width="1390pt" height="404pt"
 viewBox="0.00 0.00 1389.54 404.00" xmlns="http://www.w3.org/2000/svg" xmlns:xlink="http://www.w3.org/1999/xlink">
<g id="graph0" class="graph" transform="scale(1 1) rotate(0) translate(4 400)">
<title>%3</title>
<polygon fill="#ffffff" stroke="transparent" points="-4,4 -4,-400 1385.5386,-400 1385.5386,4 -4,4"/>
<!-- [root] aws_instance.aws&#45;server -->
<g id="node1" class="node">
<title>[root] aws_instance.aws&#45;server</title>
<polygon fill="none" stroke="#000000" points="195,-252 0,-252 0,-216 195,-216 195,-252"/>
<text text-anchor="middle" x="97.5" y="-230.3" font-family="Times,serif" font-size="14.00" fill="#000000">aws_instance.aws&#45;server</text>
</g>
<!-- [root] aws_subnet.subnet2 -->
<g id="node4" class="node">
<title>[root] aws_subnet.subnet2</title>
<polygon fill="none" stroke="#000000" points="299,-180 136,-180 136,-144 299,-144 299,-180"/>
<text text-anchor="middle" x="217.5" y="-158.3" font-family="Times,serif" font-size="14.00" fill="#000000">aws_subnet.subnet2</text>
</g>
<!-- [root] aws_instance.aws&#45;server&#45;&gt;[root] aws_subnet.subnet2 -->
<g id="edge1" class="edge">
<title>[root] aws_instance.aws&#45;server&#45;&gt;[root] aws_subnet.subnet2</title>
<path fill="none" stroke="#000000" d="M127.7811,-215.8314C143.1298,-206.6221 161.9498,-195.3301 178.3823,-185.4706"/>
<polygon fill="#000000" stroke="#000000" points="180.4544,-188.3091 187.2286,-180.1628 176.8529,-182.3066 180.4544,-188.3091"/>
</g>
<!-- [root] data.aws_ami.ubuntu -->
<g id="node8" class="node">
<title>[root] data.aws_ami.ubuntu</title>
<polygon fill="none" stroke="#000000" points="190.5,-108 20.5,-108 20.5,-72 190.5,-72 190.5,-108"/>
<text text-anchor="middle" x="105.5" y="-86.3" font-family="Times,serif" font-size="14.00" fill="#000000">data.aws_ami.ubuntu</text>
</g>
<!-- [root] aws_instance.aws&#45;server&#45;&gt;[root] data.aws_ami.ubuntu -->
<g id="edge2" class="edge">
<title>[root] aws_instance.aws&#45;server&#45;&gt;[root] data.aws_ami.ubuntu</title>
<path fill="none" stroke="#000000" d="M98.5132,-215.7623C99.8777,-191.201 102.3196,-147.2474 103.9248,-118.3541"/>
<polygon fill="#000000" stroke="#000000" points="107.4348,-118.2684 104.495,-108.0896 100.4456,-117.88 107.4348,-118.2684"/>
</g>
<!-- [root] aws_security_group.subnetseurity -->
<g id="node2" class="node">
<title>[root] aws_security_group.subnetseurity</title>
<polygon fill="none" stroke="#000000" points="476,-252 213,-252 213,-216 476,-216 476,-252"/>
<text text-anchor="middle" x="344.5" y="-230.3" font-family="Times,serif" font-size="14.00" fill="#000000">aws_security_group.subnetseurity</text>
</g>
<!-- [root] aws_vpc.environment&#45;example -->
<g id="node5" class="node">
<title>[root] aws_vpc.environment&#45;example</title>
<polygon fill="none" stroke="#000000" points="449,-108 212,-108 212,-72 449,-72 449,-108"/>
<text text-anchor="middle" x="330.5" y="-86.3" font-family="Times,serif" font-size="14.00" fill="#000000">aws_vpc.environment&#45;example</text>
</g>
<!-- [root] aws_security_group.subnetseurity&#45;&gt;[root] aws_vpc.environment&#45;example -->
<g id="edge3" class="edge">
<title>[root] aws_security_group.subnetseurity&#45;&gt;[root] aws_vpc.environment&#45;example</title>
<path fill="none" stroke="#000000" d="M342.7269,-215.7623C340.339,-191.201 336.0657,-147.2474 333.2566,-118.3541"/>
<polygon fill="#000000" stroke="#000000" points="336.71,-117.704 332.2587,-108.0896 329.7429,-118.3814 336.71,-117.704"/>
</g>
<!-- [root] aws_subnet.subnet1 -->
<g id="node3" class="node">
<title>[root] aws_subnet.subnet1</title>
<polygon fill="none" stroke="#000000" points="657,-252 494,-252 494,-216 657,-216 657,-252"/>
<text text-anchor="middle" x="575.5" y="-230.3" font-family="Times,serif" font-size="14.00" fill="#000000">aws_subnet.subnet1</text>
</g>
<!-- [root] aws_subnet.subnet1&#45;&gt;[root] aws_vpc.environment&#45;example -->
<g id="edge4" class="edge">
<title>[root] aws_subnet.subnet1&#45;&gt;[root] aws_vpc.environment&#45;example</title>
<path fill="none" stroke="#000000" d="M544.4706,-215.7623C500.1051,-189.6863 418.5504,-141.752 369.9519,-113.1881"/>
<polygon fill="#000000" stroke="#000000" points="371.6721,-110.1394 361.2775,-108.0896 368.1251,-116.1742 371.6721,-110.1394"/>
</g>
<!-- [root] aws_subnet.subnet2&#45;&gt;[root] aws_vpc.environment&#45;example -->
<g id="edge5" class="edge">
<title>[root] aws_subnet.subnet2&#45;&gt;[root] aws_vpc.environment&#45;example</title>
<path fill="none" stroke="#000000" d="M246.0147,-143.8314C260.3342,-134.7074 277.8624,-123.539 293.2338,-113.7449"/>
<polygon fill="#000000" stroke="#000000" points="295.4417,-116.4882 301.9945,-108.1628 291.6801,-110.5847 295.4417,-116.4882"/>
</g>
<!-- [root] provider.aws -->
<g id="node9" class="node">
<title>[root] provider.aws</title>
<polygon fill="none" stroke="#000000" points="286.5,-36 187.4615,-18 286.5,0 385.5385,-18 286.5,-36"/>
<text text-anchor="middle" x="286.5" y="-14.3" font-family="Times,serif" font-size="14.00" fill="#000000">provider.aws</text>
</g>
<!-- [root] aws_vpc.environment&#45;example&#45;&gt;[root] provider.aws -->
<g id="edge6" class="edge">
<title>[root] aws_vpc.environment&#45;example&#45;&gt;[root] provider.aws</title>
<path fill="none" stroke="#000000" d="M319.3969,-71.8314C314.0722,-63.1181 307.608,-52.5404 301.824,-43.0756"/>
<polygon fill="#000000" stroke="#000000" points="304.7473,-41.147 296.5462,-34.4393 298.7743,-44.7972 304.7473,-41.147"/>
</g>
<!-- [root] azurerm_resource_group.azy_network -->
<g id="node6" class="node">
<title>[root] azurerm_resource_group.azy_network</title>
<polygon fill="none" stroke="#000000" points="1044.5,-180 752.5,-180 752.5,-144 1044.5,-144 1044.5,-180"/>
<text text-anchor="middle" x="898.5" y="-158.3" font-family="Times,serif" font-size="14.00" fill="#000000">azurerm_resource_group.azy_network</text>
</g>
<!-- [root] provider.azurerm -->
<g id="node10" class="node">
<title>[root] provider.azurerm</title>
<polygon fill="none" stroke="#000000" points="898.5,-108 769.6357,-90 898.5,-72 1027.3643,-90 898.5,-108"/>
<text text-anchor="middle" x="898.5" y="-86.3" font-family="Times,serif" font-size="14.00" fill="#000000">provider.azurerm</text>
</g>
<!-- [root] azurerm_resource_group.azy_network&#45;&gt;[root] provider.azurerm -->
<g id="edge7" class="edge">
<title>[root] azurerm_resource_group.azy_network&#45;&gt;[root] provider.azurerm</title>
<path fill="none" stroke="#000000" d="M898.5,-143.8314C898.5,-136.131 898.5,-126.9743 898.5,-118.4166"/>
<polygon fill="#000000" stroke="#000000" points="902.0001,-118.4132 898.5,-108.4133 895.0001,-118.4133 902.0001,-118.4132"/>
</g>
<!-- [root] azurerm_virtual_network.blue_virtual_network -->
<g id="node7" class="node">
<title>[root] azurerm_virtual_network.blue_virtual_network</title>
<polygon fill="none" stroke="#000000" points="1076,-252 721,-252 721,-216 1076,-216 1076,-252"/>
<text text-anchor="middle" x="898.5" y="-230.3" font-family="Times,serif" font-size="14.00" fill="#000000">azurerm_virtual_network.blue_virtual_network</text>
</g>
<!-- [root] azurerm_virtual_network.blue_virtual_network&#45;&gt;[root] azurerm_resource_group.azy_network -->
<g id="edge8" class="edge">
<title>[root] azurerm_virtual_network.blue_virtual_network&#45;&gt;[root] azurerm_resource_group.azy_network</title>
<path fill="none" stroke="#000000" d="M898.5,-215.8314C898.5,-208.131 898.5,-198.9743 898.5,-190.4166"/>
<polygon fill="#000000" stroke="#000000" points="902.0001,-190.4132 898.5,-180.4133 895.0001,-190.4133 902.0001,-190.4132"/>
</g>
<!-- [root] data.aws_ami.ubuntu&#45;&gt;[root] provider.aws -->
<g id="edge9" class="edge">
<title>[root] data.aws_ami.ubuntu&#45;&gt;[root] provider.aws</title>
<path fill="none" stroke="#000000" d="M151.1739,-71.8314C180.3087,-60.2419 217.7356,-45.3538 245.8418,-34.1734"/>
<polygon fill="#000000" stroke="#000000" points="247.3675,-37.3333 255.3657,-30.3849 244.7802,-30.829 247.3675,-37.3333"/>
</g>
<!-- [root] var.client_id -->
<g id="node14" class="node">
<title>[root] var.client_id</title>
<ellipse fill="none" stroke="#000000" cx="758.5" cy="-18" rx="96.6831" ry="18"/>
<text text-anchor="middle" x="758.5" y="-14.3" font-family="Times,serif" font-size="14.00" fill="#000000">[root] var.client_id</text>
</g>
<!-- [root] provider.azurerm&#45;&gt;[root] var.client_id -->
<g id="edge18" class="edge">
<title>[root] provider.azurerm&#45;&gt;[root] var.client_id</title>
<path fill="none" stroke="#000000" d="M870.8405,-75.7751C850.8095,-65.4735 823.3692,-51.3613 800.623,-39.6632"/>
<polygon fill="#000000" stroke="#000000" points="802.0138,-36.4428 791.5201,-34.9818 798.8123,-42.6678 802.0138,-36.4428"/>
</g>
<!-- [root] var.client_secret -->
<g id="node15" class="node">
<title>[root] var.client_secret</title>
<ellipse fill="none" stroke="#000000" cx="990.5" cy="-18" rx="116.9792" ry="18"/>
<text text-anchor="middle" x="990.5" y="-14.3" font-family="Times,serif" font-size="14.00" fill="#000000">[root] var.client_secret</text>
</g>
<!-- [root] provider.azurerm&#45;&gt;[root] var.client_secret -->
<g id="edge19" class="edge">
<title>[root] provider.azurerm&#45;&gt;[root] var.client_secret</title>
<path fill="none" stroke="#000000" d="M918.4626,-74.3771C930.4541,-64.9925 945.9654,-52.8532 959.5215,-42.244"/>
<polygon fill="#000000" stroke="#000000" points="961.9426,-44.7937 967.6605,-35.8744 957.6284,-39.2812 961.9426,-44.7937"/>
</g>
<!-- [root] var.subscription_id -->
<g id="node16" class="node">
<title>[root] var.subscription_id</title>
<ellipse fill="none" stroke="#000000" cx="1253.5" cy="-18" rx="128.0773" ry="18"/>
<text text-anchor="middle" x="1253.5" y="-14.3" font-family="Times,serif" font-size="14.00" fill="#000000">[root] var.subscription_id</text>
</g>
<!-- [root] provider.azurerm&#45;&gt;[root] var.subscription_id -->
<g id="edge20" class="edge">
<title>[root] provider.azurerm&#45;&gt;[root] var.subscription_id</title>
<path fill="none" stroke="#000000" d="M951.2638,-79.2986C1009.0429,-67.58 1102.4784,-48.6297 1170.1809,-34.8985"/>
<polygon fill="#000000" stroke="#000000" points="1171.2909,-38.2447 1180.3956,-32.8268 1169.8994,-31.3844 1171.2909,-38.2447"/>
</g>
<!-- [root] var.tenant_id -->
<g id="node17" class="node">
<title>[root] var.tenant_id</title>
<ellipse fill="none" stroke="#000000" cx="542.5" cy="-18" rx="100.9827" ry="18"/>
<text text-anchor="middle" x="542.5" y="-14.3" font-family="Times,serif" font-size="14.00" fill="#000000">[root] var.tenant_id</text>
</g>
<!-- [root] provider.azurerm&#45;&gt;[root] var.tenant_id -->
<g id="edge21" class="edge">
<title>[root] provider.azurerm&#45;&gt;[root] var.tenant_id</title>
<path fill="none" stroke="#000000" d="M845.5876,-79.2986C785.6806,-67.1826 687.5503,-47.336 619.2374,-33.5199"/>
<polygon fill="#000000" stroke="#000000" points="619.8783,-30.0788 609.3829,-31.5269 618.4906,-36.9398 619.8783,-30.0788"/>
</g>
<!-- [root] meta.count&#45;boundary (count boundary fixup) -->
<g id="node11" class="node">
<title>[root] meta.count&#45;boundary (count boundary fixup)</title>
<ellipse fill="none" stroke="#000000" cx="535.5" cy="-306" rx="248.0561" ry="18"/>
<text text-anchor="middle" x="535.5" y="-302.3" font-family="Times,serif" font-size="14.00" fill="#000000">[root] meta.count&#45;boundary (count boundary fixup)</text>
</g>
<!-- [root] meta.count&#45;boundary (count boundary fixup)&#45;&gt;[root] aws_instance.aws&#45;server -->
<g id="edge10" class="edge">
<title>[root] meta.count&#45;boundary (count boundary fixup)&#45;&gt;[root] aws_instance.aws&#45;server</title>
<path fill="none" stroke="#000000" d="M433.3888,-289.5802C370.2768,-279.3867 287.3247,-265.9088 205.1264,-252.2656"/>
<polygon fill="#000000" stroke="#000000" points="205.5458,-248.7873 195.1074,-250.6011 204.3986,-255.6927 205.5458,-248.7873"/>
</g>
<!-- [root] meta.count&#45;boundary (count boundary fixup)&#45;&gt;[root] aws_security_group.subnetseurity -->
<g id="edge11" class="edge">
<title>[root] meta.count&#45;boundary (count boundary fixup)&#45;&gt;[root] aws_security_group.subnetseurity</title>
<path fill="none" stroke="#000000" d="M488.2865,-288.2022C462.1984,-278.368 429.5863,-266.0744 402.0187,-255.6824"/>
<polygon fill="#000000" stroke="#000000" points="403.0889,-252.3455 392.497,-252.0931 400.6197,-258.8956 403.0889,-252.3455"/>
</g>
<!-- [root] meta.count&#45;boundary (count boundary fixup)&#45;&gt;[root] aws_subnet.subnet1 -->
<g id="edge12" class="edge">
<title>[root] meta.count&#45;boundary (count boundary fixup)&#45;&gt;[root] aws_subnet.subnet1</title>
<path fill="none" stroke="#000000" d="M545.5937,-287.8314C550.0597,-279.7925 555.4075,-270.1666 560.3379,-261.2918"/>
<polygon fill="#000000" stroke="#000000" points="563.4735,-262.8546 565.2704,-252.4133 557.3544,-259.4551 563.4735,-262.8546"/>
</g>
<!-- [root] meta.count&#45;boundary (count boundary fixup)&#45;&gt;[root] azurerm_virtual_network.blue_virtual_network -->
<g id="edge13" class="edge">
<title>[root] meta.count&#45;boundary (count boundary fixup)&#45;&gt;[root] azurerm_virtual_network.blue_virtual_network</title>
<path fill="none" stroke="#000000" d="M621.0663,-289.0282C673.9603,-278.5368 742.1087,-265.0198 797.6257,-254.0081"/>
<polygon fill="#000000" stroke="#000000" points="798.3551,-257.4317 807.4831,-252.0529 796.9932,-250.5655 798.3551,-257.4317"/>
</g>
<!-- [root] provider.aws (close) -->
<g id="node12" class="node">
<title>[root] provider.aws (close)</title>
<ellipse fill="none" stroke="#000000" cx="136.5" cy="-306" rx="132.6765" ry="18"/>
<text text-anchor="middle" x="136.5" y="-302.3" font-family="Times,serif" font-size="14.00" fill="#000000">[root] provider.aws (close)</text>
</g>
<!-- [root] provider.aws (close)&#45;&gt;[root] aws_instance.aws&#45;server -->
<g id="edge14" class="edge">
<title>[root] provider.aws (close)&#45;&gt;[root] aws_instance.aws&#45;server</title>
<path fill="none" stroke="#000000" d="M126.6587,-287.8314C122.3043,-279.7925 117.0902,-270.1666 112.2831,-261.2918"/>
<polygon fill="#000000" stroke="#000000" points="115.3143,-259.5392 107.4739,-252.4133 109.1592,-262.8732 115.3143,-259.5392"/>
</g>
<!-- [root] provider.aws (close)&#45;&gt;[root] aws_security_group.subnetseurity -->
<g id="edge15" class="edge">
<title>[root] provider.aws (close)&#45;&gt;[root] aws_security_group.subnetseurity</title>
<path fill="none" stroke="#000000" d="M185.0043,-289.2101C214.1599,-279.1177 251.5448,-266.1768 282.7909,-255.3608"/>
<polygon fill="#000000" stroke="#000000" points="283.9701,-258.6565 292.275,-252.0779 281.6802,-252.0416 283.9701,-258.6565"/>
</g>
<!-- [root] provider.aws (close)&#45;&gt;[root] aws_subnet.subnet1 -->
<g id="edge16" class="edge">
<title>[root] provider.aws (close)&#45;&gt;[root] aws_subnet.subnet1</title>
<path fill="none" stroke="#000000" d="M227.8931,-292.8727C295.7789,-282.8757 390.8817,-268.3551 483.8198,-252.0843"/>
<polygon fill="#000000" stroke="#000000" points="484.4349,-255.5299 493.6774,-250.3504 483.2222,-248.6358 484.4349,-255.5299"/>
</g>
<!-- [root] provider.azurerm (close) -->
<g id="node13" class="node">
<title>[root] provider.azurerm (close)</title>
<ellipse fill="none" stroke="#000000" cx="955.5" cy="-306" rx="153.2729" ry="18"/>
<text text-anchor="middle" x="955.5" y="-302.3" font-family="Times,serif" font-size="14.00" fill="#000000">[root] provider.azurerm (close)</text>
</g>
<!-- [root] provider.azurerm (close)&#45;&gt;[root] azurerm_virtual_network.blue_virtual_network -->
<g id="edge17" class="edge">
<title>[root] provider.azurerm (close)&#45;&gt;[root] azurerm_virtual_network.blue_virtual_network</title>
<path fill="none" stroke="#000000" d="M941.1165,-287.8314C934.5514,-279.5386 926.6493,-269.557 919.4422,-260.4533"/>
<polygon fill="#000000" stroke="#000000" points="922.0284,-258.0813 913.0772,-252.4133 916.5401,-262.4262 922.0284,-258.0813"/>
</g>
<!-- [root] root -->
<g id="node18" class="node">
<title>[root] root</title>
<ellipse fill="none" stroke="#000000" cx="535.5" cy="-378" rx="58.4896" ry="18"/>
<text text-anchor="middle" x="535.5" y="-374.3" font-family="Times,serif" font-size="14.00" fill="#000000">[root] root</text>
</g>
<!-- [root] root&#45;&gt;[root] meta.count&#45;boundary (count boundary fixup) -->
<g id="edge22" class="edge">
<title>[root] root&#45;&gt;[root] meta.count&#45;boundary (count boundary fixup)</title>
<path fill="none" stroke="#000000" d="M535.5,-359.8314C535.5,-352.131 535.5,-342.9743 535.5,-334.4166"/>
<polygon fill="#000000" stroke="#000000" points="539.0001,-334.4132 535.5,-324.4133 532.0001,-334.4133 539.0001,-334.4132"/>
</g>
<!-- [root] root&#45;&gt;[root] provider.aws (close) -->
<g id="edge23" class="edge">
<title>[root] root&#45;&gt;[root] provider.aws (close)</title>
<path fill="none" stroke="#000000" d="M484.9664,-368.8812C420.1126,-357.1782 306.4622,-336.6699 226.6295,-322.264"/>
<polygon fill="#000000" stroke="#000000" points="227.0409,-318.7818 216.5783,-320.4502 225.7978,-325.6705 227.0409,-318.7818"/>
</g>
<!-- [root] root&#45;&gt;[root] provider.azurerm (close) -->
<g id="edge24" class="edge">
<title>[root] root&#45;&gt;[root] provider.azurerm (close)</title>
<path fill="none" stroke="#000000" d="M587.0002,-369.1714C654.4257,-357.6127 773.9687,-337.1197 858.5935,-322.6125"/>
<polygon fill="#000000" stroke="#000000" points="859.2109,-326.0578 868.4757,-320.9184 858.0281,-319.1585 859.2109,-326.0578"/>
</g>
</g>
</svg>
